<svg width="172" height="171" viewBox="0 0 172 171" fill="none" xmlns="http://www.w3.org/2000/svg">
<path d="M65.7333 12.6667C46.8 17.8667 28.1333 32 18.9333 48.1333C7.6 68.2667 6.4 96.1333 16.2667 117.333C19.4667 124.533 26 133.333 27.8667 133.333C28.5333 133.333 29.4667 132 30.2667 130.4C31.3333 128 30.8 126.133 27.7333 121.067C11.0667 94 14.9333 60.8 37.2 38.5333C54.4 21.3333 76.5333 15.0667 100.533 20.6667C109.467 22.8 112.667 22.4 113.867 19.2C116.4 12.8 82.5333 8.13334 65.7333 12.6667Z" fill="#ED1C23"/>
<path d="M94.8 57.6C94.6667 41.6 100.133 32.1333 113.467 25.4667C120.267 22 123.333 21.3333 130.933 21.3333C135.867 21.3333 140 21.7333 140 22.1333C140 22.5333 136.8 26.4 133.067 30.6667C124 40.5333 116.667 54.2667 113.333 67.2C112 72.8 109.467 88.2667 107.867 101.733C106.4 115.067 104.933 126.267 104.667 126.533C102.8 128.267 98.2667 122 81.2 94C63.7333 65.2 62 62.6667 61.7333 66.8C59.7333 94.1333 54.4 114.533 45.3333 128.933C42.4 133.6 40.5333 137.333 41.2 137.333C44.4 137.333 52.8 126.267 58.9333 114C63.4667 104.8 66.1333 100.533 66.9333 101.6C69.0667 105.2 68 123.067 65.2 129.333C59.4667 142 47.6 149.733 34 149.867C21.7333 149.867 21.4667 149.067 30.6667 138.933C45.7333 122.667 50.6667 107.733 55.3333 65.6C57.3333 47.8667 58.1333 44 59.8667 44.2667C60.9333 44.5333 70.2667 58.6667 80.5333 75.6C90.9333 92.6667 99.7333 106.667 100.4 106.667C100.933 106.667 101.333 102.933 101.333 98.2667C101.333 81.4667 107.867 58 116.533 43.6C121.2 35.8667 119.5 37.6 116 37.6C109.733 44.9333 102.533 56.8 99.7333 64.2667C96.2667 74 94.9333 72.2667 94.8 57.6Z" fill="#ED1C23"/>
<path d="M132.933 34.2667C131.067 36.5333 131.333 37.3333 137.333 45.3333C162.667 78.9333 151.6 126.933 114.267 145.333C98 153.333 82.2667 154.667 65.7333 149.733C60.6667 148.133 57.7333 147.867 54.4 148.8L50 150.133L59.2 154.667C67.6 158.8 69.8667 159.333 82.1333 159.733C99.4667 160.4 112.133 157.067 126 148C147.467 133.867 158.667 112.8 158.667 86.4C158.667 72.1333 156.933 63.0667 151.867 52.5333C148.4 44.9333 138.4 32 136.133 32C135.6 32 134.133 33.0667 132.933 34.2667Z" fill="#ED1C23"/>
</svg>
